<svg width="38" height="41" viewBox="0 0 38 41" fill="none" xmlns="http://www.w3.org/2000/svg">
<path fill-rule="evenodd" clip-rule="evenodd" d="M20.0872 39.5369L20.067 39.5406L19.9368 39.6048L19.9002 39.6121L19.8745 39.6048L19.7443 39.5406C19.7248 39.5345 19.7101 39.5375 19.7003 39.5498L19.693 39.5681L19.6618 40.3528L19.671 40.3894L19.6893 40.4133L19.88 40.5489L19.9075 40.5563L19.9295 40.5489L20.1202 40.4133L20.1422 40.3839L20.1495 40.3528L20.1183 39.5699C20.1135 39.5504 20.1031 39.5394 20.0872 39.5369ZM20.573 39.3298L20.5492 39.3334L20.21 39.5039L20.1917 39.5223L20.1862 39.5424L20.2192 40.3308L20.2283 40.3528L20.243 40.3656L20.6115 40.5361C20.6347 40.5422 20.6525 40.5373 20.6647 40.5214L20.672 40.4958L20.6097 39.3701C20.6036 39.3481 20.5913 39.3347 20.573 39.3298ZM19.2622 39.3334C19.2541 39.3285 19.2444 39.3269 19.2352 39.329C19.226 39.331 19.2179 39.3366 19.2127 39.3444L19.2017 39.3701L19.1393 40.4958C19.1406 40.5178 19.151 40.5324 19.1705 40.5398L19.198 40.5361L19.5665 40.3656L19.5848 40.3509L19.5922 40.3308L19.6233 39.5424L19.6178 39.5204L19.5995 39.5021L19.2622 39.3334Z" fill="#7E5005"/>
<path d="M18.9997 1.06348C28.8489 1.06348 36.8335 9.04728 36.8337 18.8965C36.8337 28.7458 28.849 36.7305 18.9997 36.7305C9.15047 36.7303 1.16667 28.7457 1.16667 18.8965C1.16685 9.04739 9.15058 1.06365 18.9997 1.06348ZM21.2575 3.90039C18.3713 3.46596 15.4207 3.87355 12.7604 5.07422C10.1002 6.27492 7.84292 8.21821 6.25945 10.6699C4.67609 13.1216 3.83399 15.978 3.83366 18.8965C3.83332 22.5908 5.18122 26.1588 7.62468 28.9297C10.0681 31.7005 13.4389 33.4845 17.1042 33.9463L17.6667 34.0166V22.0635H13.4997C13.1462 22.0634 12.8073 21.9228 12.5573 21.6729C12.3073 21.4229 12.1668 21.084 12.1667 20.7305C12.1667 20.3768 12.3072 20.0372 12.5573 19.7871C12.8073 19.5372 13.1463 19.3966 13.4997 19.3965H17.6667V15.2305C17.6667 13.9044 18.1938 12.632 19.1315 11.6943C20.0692 10.7569 21.3407 10.2305 22.6667 10.2305H23.5837C23.9372 10.2306 24.2761 10.3711 24.526 10.6211C24.776 10.8711 24.9167 11.2099 24.9167 11.5635C24.9167 11.917 24.776 12.2558 24.526 12.5059C24.2761 12.7558 23.9372 12.8964 23.5837 12.8965H22.6667C22.0478 12.8965 21.4539 13.1425 21.0163 13.5801C20.5788 14.0176 20.3337 14.6117 20.3337 15.2305V19.3965H24.4997C24.8533 19.3965 25.193 19.5371 25.443 19.7871C25.6931 20.0372 25.8337 20.3768 25.8337 20.7305C25.8336 21.0839 25.6929 21.4229 25.443 21.6729C25.193 21.9229 24.8533 22.0635 24.4997 22.0635H20.3337V34.0166L20.8962 33.9463C23.7919 33.5814 26.5208 32.3881 28.7555 30.5107C30.9903 28.6334 32.6358 26.1507 33.4948 23.3613C34.3537 20.5721 34.3898 17.5943 33.5983 14.7852C32.8067 11.9758 31.2209 9.4541 29.0319 7.52344C26.843 5.59295 24.1435 4.33483 21.2575 3.90039Z" fill="#7E5005" stroke="#7E5005"/>
</svg>
