<svg width="37" height="37" viewBox="0 0 37 37" fill="none" xmlns="http://www.w3.org/2000/svg">
<path d="M10.6338 0.726562H26.0332C31.6237 0.726562 36.167 5.26983 36.167 10.8604V26.2598C36.167 28.9473 35.0986 31.5244 33.1982 33.4248C31.2979 35.3252 28.7207 36.3936 26.0332 36.3936H10.6338C5.04326 36.3936 0.5 31.8503 0.5 26.2598V10.8604C0.5 8.17282 1.5674 5.5947 3.46777 3.69434C5.36814 1.79397 7.94626 0.726563 10.6338 0.726562ZM10.2666 3.39355C8.38359 3.39357 6.57759 4.14116 5.24609 5.47266C3.9146 6.80415 3.16701 8.61015 3.16699 10.4932V26.627C3.1672 30.5512 6.34229 33.7265 10.2666 33.7266H26.4004C28.2833 33.7265 30.0895 32.9789 31.4209 31.6475C32.7523 30.316 33.4999 28.5098 33.5 26.627V10.4932C33.5 6.56885 30.3247 3.39377 26.4004 3.39355H10.2666ZM18.333 9.89355C20.6316 9.89355 22.8366 10.8063 24.4619 12.4316C26.0871 14.0569 26.9999 16.2612 27 18.5596C27 20.8581 26.0872 23.0632 24.4619 24.6885C22.8366 26.3138 20.6316 27.2266 18.333 27.2266C16.0347 27.2265 13.8303 26.3136 12.2051 24.6885C10.5798 23.0632 9.66699 20.8581 9.66699 18.5596C9.66708 16.2611 10.5798 14.0569 12.2051 12.4316C13.8303 10.8064 16.0346 9.89364 18.333 9.89355ZM18.333 12.5596C16.7418 12.5597 15.216 13.1922 14.0908 14.3174C12.9657 15.4425 12.3331 16.9684 12.333 18.5596C12.333 20.1509 12.9656 21.6775 14.0908 22.8027C15.2159 23.9278 16.7419 24.5595 18.333 24.5596C19.9243 24.5596 21.451 23.928 22.5762 22.8027C23.7014 21.6775 24.333 20.1509 24.333 18.5596C24.3329 16.9685 23.7012 15.4425 22.5762 14.3174C21.451 13.1922 19.9243 12.5596 18.333 12.5596ZM27.958 7.14355C28.4332 7.14355 28.8896 7.33197 29.2256 7.66797C29.5614 8.00388 29.7499 8.45958 29.75 8.93457C29.75 9.40975 29.5616 9.86615 29.2256 10.2021C28.8896 10.5382 28.4332 10.7266 27.958 10.7266C27.483 10.7265 27.0273 10.538 26.6914 10.2021C26.3554 9.86615 26.167 9.40975 26.167 8.93457C26.1671 8.45951 26.3555 8.00389 26.6914 7.66797C27.0273 7.33204 27.4829 7.14364 27.958 7.14355Z" fill="#7E5005" stroke="#7E5005"/>
</svg>
