<svg width="41" height="39" viewBox="0 0 41 39" fill="none" xmlns="http://www.w3.org/2000/svg">
<path d="M5.66676 9.5599C7.6918 9.5599 9.33343 7.91827 9.33343 5.89323C9.33343 3.86819 7.6918 2.22656 5.66676 2.22656C3.64171 2.22656 2.00009 3.86819 2.00009 5.89323C2.00009 7.91827 3.64171 9.5599 5.66676 9.5599Z" stroke="#7E5005" stroke-width="3" stroke-linecap="round" stroke-linejoin="round"/>
<path d="M2.00009 15.0599H9.33343V37.0599H2.00009V15.0599ZM38.6668 37.0599H31.3334V24.2266C31.3334 23.2541 30.9471 22.3215 30.2595 21.6338C29.5718 20.9462 28.6392 20.5599 27.6668 20.5599C26.6943 20.5599 25.7617 20.9462 25.074 21.6338C24.3864 22.3215 24.0001 23.2541 24.0001 24.2266V37.0599H16.6668V24.2266C16.6668 21.3092 17.8257 18.5113 19.8886 16.4484C21.9515 14.3855 24.7494 13.2266 27.6668 13.2266C30.5841 13.2266 33.382 14.3855 35.4449 16.4484C37.5078 18.5113 38.6668 21.3092 38.6668 24.2266V37.0599Z" stroke="#7E5005" stroke-width="3" stroke-linecap="round" stroke-linejoin="round"/>
</svg>
