<svg width="44" height="44" viewBox="0 0 44 44" fill="none" xmlns="http://www.w3.org/2000/svg">
<rect x="0.5" y="0.5" width="43" height="43" rx="21.5" stroke="#7E5005"/>
<path d="M19.3027 11.5029C21.2248 11.4495 23.0977 12.0882 24.584 13.2949L24.876 13.5439C26.4049 14.9116 27.3525 16.8132 27.5234 18.8574C27.6943 20.9015 27.0762 22.9336 25.7959 24.5361L25.5166 24.8857L25.833 25.2021L32.3447 31.7129L32.3574 31.7256C32.4012 31.7664 32.4365 31.8154 32.4609 31.8701C32.4732 31.8976 32.4828 31.9268 32.4893 31.9561L32.5 32.0449C32.5005 32.0748 32.4976 32.1045 32.4922 32.1338L32.4678 32.2197C32.4453 32.2754 32.4116 32.3267 32.3691 32.3691C32.3479 32.3903 32.3247 32.4093 32.2998 32.4258L32.2207 32.4678C32.165 32.4903 32.1049 32.501 32.0449 32.5L31.9561 32.4893L31.8711 32.4609C31.8162 32.4365 31.7665 32.4014 31.7256 32.3574L31.7129 32.3447L25.2012 25.834L24.8848 25.5176L24.5352 25.7969C23.0327 26.9973 21.1527 27.6153 19.2393 27.5469L18.8564 27.5244C16.9403 27.3641 15.1498 26.5215 13.8066 25.1572L13.5439 24.877C12.2618 23.4435 11.5402 21.6009 11.502 19.6865L11.5029 19.3027C11.5564 17.3804 12.2984 15.5459 13.5859 14.1289L13.8506 13.8506C15.2103 12.4908 17.0099 11.6671 18.9189 11.5225L19.3027 11.5029ZM19.5205 12.3936C18.1988 12.3945 16.9053 12.7632 15.7832 13.4551L15.5605 13.5977C14.3888 14.3815 13.4757 15.4952 12.9365 16.7979C12.4311 18.0192 12.2761 19.3556 12.4854 20.6572L12.5312 20.917C12.7893 22.2136 13.4026 23.4117 14.2998 24.3779L14.4824 24.5674H14.4834C15.7363 25.8201 17.4069 26.5593 19.168 26.6475L19.5215 26.6562C21.3993 26.6571 23.1999 25.9158 24.5352 24.5967L24.5488 24.5869L24.5752 24.5605C25.5706 23.5622 26.2481 22.2913 26.5215 20.9082C26.7778 19.6115 26.6683 18.2705 26.208 17.0352L26.1113 16.7891C25.6043 15.5684 24.7681 14.5148 23.6992 13.7432L23.4824 13.5928C22.3829 12.8594 21.1025 12.4464 19.7852 12.3984L19.5205 12.3936Z" fill="black" stroke="#4F4F4F"/>
</svg>
