<svg width="45" height="44" viewBox="0 0 45 44" fill="none" xmlns="http://www.w3.org/2000/svg">
<rect x="1" y="0.5" width="43" height="43" rx="21.5" stroke="#7E5005"/>
<path d="M8.33337 22C8.33337 29.8242 14.6758 36.1667 22.5 36.1667C30.3243 36.1667 36.6667 29.8242 36.6667 22C36.6667 14.1757 30.3243 7.83333 22.5 7.83333C14.6758 7.83333 8.33337 14.1757 8.33337 22Z" stroke="#4F4F4F" stroke-width="1.5" stroke-linecap="round" stroke-linejoin="round"/>
<path d="M23.9152 7.90527C23.9152 7.90527 28.1652 13.5011 28.1652 22.0011C28.1652 30.5011 23.9152 36.0969 23.9152 36.0969M21.0819 36.0969C21.0819 36.0969 16.8319 30.5011 16.8319 22.0011C16.8319 13.5011 21.0819 7.90527 21.0819 7.90527M9.22437 26.9594H35.7727M9.22437 17.0428H35.7727" stroke="#4F4F4F" stroke-width="1.5" stroke-linecap="round" stroke-linejoin="round"/>
</svg>
