<svg width="60" height="78" viewBox="0 0 60 78" fill="none" xmlns="http://www.w3.org/2000/svg">
<path d="M32.7174 30.9352C33.1935 29.3296 35.4442 29.2514 36.0307 30.8201L39.4697 40.0281C40.2266 42.0522 41.4465 43.8728 43.0329 45.3456C44.6193 46.8183 46.5284 47.9028 48.6091 48.5131L58.0676 51.2903C59.6798 51.764 59.7577 54.0053 58.1822 54.5897L48.9345 58.017C46.9016 58.7713 45.073 59.9867 43.5936 61.5669C42.1141 63.147 41.0245 65.0485 40.4111 67.1206L37.6194 76.5403C37.5169 76.8918 37.3056 77.2022 37.0156 77.4271C36.7255 77.652 36.3716 77.78 36.0043 77.7927C35.6369 77.8055 35.275 77.7024 34.97 77.4982C34.6651 77.2939 34.4327 76.999 34.3061 76.6554L30.8671 67.4475C30.1107 65.4239 28.8915 63.6036 27.306 62.1308C25.7205 60.658 23.8123 59.5732 21.7325 58.9623L12.2692 56.1852C11.9162 56.0833 11.6046 55.8729 11.3788 55.5841C11.1531 55.2954 11.0247 54.943 11.012 54.5772C10.9993 54.2114 11.1029 53.8509 11.3081 53.5472C11.5132 53.2435 11.8095 53.012 12.1545 52.8858L21.4023 49.4585C23.4346 48.7047 25.2629 47.49 26.7424 45.9108C28.2218 44.3315 29.3117 42.4309 29.9258 40.3597L32.7174 30.9352ZM13.2072 7.05933C13.2693 6.84864 13.3964 6.66276 13.5705 6.52809C13.7447 6.39341 13.957 6.31681 14.1773 6.30915C14.3977 6.30149 14.6148 6.36318 14.7979 6.48544C14.981 6.60769 15.1207 6.78431 15.1972 6.99019L17.2605 12.514C18.1827 14.9764 20.2115 16.8609 22.7423 17.606L28.4193 19.2723C28.6309 19.334 28.8175 19.4606 28.9527 19.634C29.0879 19.8073 29.1647 20.0187 29.1724 20.2381C29.18 20.4576 29.118 20.6738 28.9952 20.8561C28.8723 21.0385 28.6949 21.1777 28.4882 21.2539L22.9405 23.3102C21.72 23.7612 20.6221 24.4896 19.7341 25.4376C18.846 26.3855 18.1925 27.5268 17.8254 28.7705L16.1505 34.4242C16.0885 34.6349 15.9613 34.8208 15.7872 34.9555C15.613 35.0902 15.4007 35.1668 15.1804 35.1744C14.9601 35.1821 14.7429 35.1204 14.5598 34.9981C14.3768 34.8759 14.2371 34.6993 14.1606 34.4934L12.0972 28.9696C11.6447 27.7543 10.9135 26.6612 9.96182 25.7772C9.01014 24.8931 7.86427 24.2427 6.61544 23.8775L0.938419 22.2112C0.72686 22.1495 0.540229 22.023 0.405041 21.8496C0.269854 21.6762 0.192987 21.4648 0.185363 21.2454C0.177739 21.026 0.239745 20.8098 0.362571 20.6274C0.485397 20.4451 0.662796 20.3059 0.869561 20.2297L6.41722 18.1733C7.63769 17.7224 8.73565 16.9939 9.62367 16.046C10.5117 15.098 11.1652 13.9568 11.5323 12.7131L13.2072 7.05933ZM47.1745 0.827615C47.2174 0.689011 47.3026 0.567155 47.4183 0.478989C47.534 0.390824 47.6743 0.34073 47.8199 0.335672C47.9654 0.330614 48.1089 0.370843 48.2305 0.450767C48.352 0.530691 48.4454 0.646338 48.4979 0.781628L49.8734 4.46097C50.4866 6.1058 51.8408 7.36372 53.5312 7.85875L57.3126 8.96973C57.4518 9.01243 57.5742 9.09726 57.6627 9.21241C57.7512 9.32757 57.8014 9.46734 57.8065 9.61228C57.8115 9.75723 57.7711 9.90015 57.6908 10.0212C57.6105 10.1422 57.4943 10.2353 57.3584 10.2876L53.6632 11.6584C52.8499 11.9611 52.1183 12.4478 51.526 13.0801C50.9337 13.7123 50.4969 14.4729 50.2501 15.3018L49.1333 19.0678C49.0904 19.2064 49.0052 19.3283 48.8895 19.4164C48.7738 19.5046 48.6335 19.5547 48.4879 19.5597C48.3424 19.5648 48.1988 19.5246 48.0773 19.4446C47.9558 19.3647 47.8624 19.2491 47.8099 19.1138L46.4344 15.4344C46.1307 14.6246 45.6421 13.8962 45.0074 13.3066C44.3726 12.7169 43.609 12.2822 42.7766 12.0367L39 10.9255C38.8608 10.8828 38.7385 10.798 38.65 10.6828C38.5615 10.5677 38.5112 10.4279 38.5062 10.283C38.5011 10.138 38.5416 9.99509 38.6219 9.87407C38.7022 9.75305 38.8183 9.65993 38.9542 9.60767L42.6494 8.23689C44.3013 7.62571 45.5649 6.27682 46.0626 4.59339L47.1745 0.827615Z" fill="#FFFAF1" fill-opacity="0.2"/>
</svg>
