<svg width="58" height="77" viewBox="0 0 58 77" fill="none" xmlns="http://www.w3.org/2000/svg">
<path d="M32.1759 30.0566C32.7075 28.4685 34.9596 28.4685 35.4912 30.0566L38.6083 39.3785C39.2945 41.4276 40.4505 43.2895 41.9847 44.8165C43.519 46.3435 45.3894 47.4936 47.4475 48.1757L56.8039 51.2798C58.3987 51.8092 58.3987 54.0518 56.8039 54.5812L47.4427 57.6853C45.3849 58.3685 43.5152 59.5197 41.9817 61.0475C40.4483 62.5753 39.2933 64.4378 38.6083 66.4874L35.4912 75.8044C35.3766 76.1522 35.1546 76.455 34.8569 76.6697C34.5592 76.8844 34.2011 77 33.8335 77C33.466 77 33.1078 76.8844 32.8101 76.6697C32.5124 76.455 32.2905 76.1522 32.1759 75.8044L29.0587 66.4826C28.373 64.4339 27.2178 62.5724 25.6844 61.0454C24.151 59.5185 22.2816 58.368 20.2243 57.6853L10.8631 54.5812C10.5139 54.4671 10.2098 54.246 9.9942 53.9496C9.7786 53.6532 9.66252 53.2965 9.66252 52.9305C9.66252 52.5645 9.7786 52.2078 9.9942 51.9114C10.2098 51.615 10.5139 51.394 10.8631 51.2798L20.2243 48.1757C22.2816 47.493 24.151 46.3426 25.6844 44.8156C27.2178 43.2887 28.373 41.4271 29.0587 39.3785L32.1759 30.0566ZM13.5067 5.51757C13.576 5.30916 13.7095 5.1278 13.8882 4.99926C14.0669 4.87071 14.2818 4.80153 14.5022 4.80153C14.7227 4.80153 14.9376 4.87071 15.1163 4.99926C15.295 5.1278 15.4285 5.30916 15.4978 5.51757L17.3681 11.1097C18.2042 13.6026 20.1663 15.5565 22.6697 16.389L28.2854 18.2515C28.4947 18.3205 28.6768 18.4534 28.8059 18.6314C28.935 18.8094 29.0045 19.0233 29.0045 19.2429C29.0045 19.4624 28.935 19.6764 28.8059 19.8543C28.6768 20.0323 28.4947 20.1652 28.2854 20.2343L22.6697 22.0967C21.4343 22.505 20.3117 23.1949 19.3913 24.1114C18.4709 25.0279 17.7781 26.1458 17.3681 27.376L15.4978 32.9682C15.4285 33.1766 15.295 33.358 15.1163 33.4865C14.9376 33.615 14.7227 33.6842 14.5022 33.6842C14.2818 33.6842 14.0669 33.615 13.8882 33.4865C13.7095 33.358 13.576 33.1766 13.5067 32.9682L11.6364 27.376C11.2264 26.1458 10.5336 25.0279 9.61318 24.1114C8.69278 23.1949 7.57018 22.505 6.33479 22.0967L0.71906 20.2343C0.509772 20.1652 0.327647 20.0323 0.198563 19.8543C0.0694782 19.6764 0 19.4624 0 19.2429C0 19.0233 0.0694782 18.8094 0.198563 18.6314C0.327647 18.4534 0.509772 18.3205 0.71906 18.2515L6.33479 16.389C7.57018 15.9808 8.69278 15.2909 9.61318 14.3743C10.5336 13.4578 11.2264 12.3399 11.6364 11.1097L13.5067 5.51757ZM47.6699 0.469233C47.7176 0.332203 47.807 0.21338 47.9256 0.129285C48.0443 0.0451891 48.1863 0 48.332 0C48.4776 0 48.6196 0.0451891 48.7383 0.129285C48.8569 0.21338 48.9463 0.332203 48.994 0.469233L50.2409 4.19412C50.7967 5.85926 52.1064 7.16345 53.7785 7.71689L57.5191 8.95852C57.6567 9.00603 57.7761 9.09505 57.8605 9.21321C57.945 9.33137 57.9903 9.4728 57.9903 9.61783C57.9903 9.76287 57.945 9.90429 57.8605 10.0225C57.7761 10.1406 57.6567 10.2296 57.5191 10.2772L53.7785 11.5188C52.9552 11.7931 52.2071 12.2541 51.5932 12.8654C50.9793 13.4767 50.5164 14.2217 50.2409 15.0415L48.994 18.7664C48.9463 18.9035 48.8569 19.0223 48.7383 19.1064C48.6196 19.1905 48.4776 19.2357 48.332 19.2357C48.1863 19.2357 48.0443 19.1905 47.9256 19.1064C47.807 19.0223 47.7176 18.9035 47.6699 18.7664L46.423 15.0415C46.1475 14.2217 45.6846 13.4767 45.0707 12.8654C44.4568 12.2541 43.7087 11.7931 42.8854 11.5188L39.1496 10.2772C39.012 10.2296 38.8927 10.1406 38.8082 10.0225C38.7238 9.90429 38.6784 9.76287 38.6784 9.61783C38.6784 9.4728 38.7238 9.33137 38.8082 9.21321C38.8927 9.09505 39.012 9.00603 39.1496 8.95852L42.8902 7.71689C44.5624 7.16345 45.872 5.85926 46.4278 4.19412L47.6699 0.469233Z" fill="#FFFAF1"/>
</svg>
